<svg xmlns="http://www.w3.org/2000/svg" version="1.1" xmlns:xlink="http://www.w3.org/1999/xlink" xmlns:svgjs="http://svgjs.dev/svgjs" width="1920" height="1080" preserveAspectRatio="none" viewBox="0 0 1920 1080"><g mask="url(&quot;#SvgjsMask1015&quot;)" fill="none"><rect width="1920" height="1080" x="0" y="0" fill="rgba(255, 255, 255, 1)"></rect><path d="M1132.4-123.6C966.94-122.19 852.58 25.71 492.44 45.21 132.31 64.71 53.08 514.01-147.51 542.01" stroke="rgba(17, 17, 132, 1)" stroke-width="2"></path><path d="M1016-42.78C790.03 10.79 770.1 560.56 361.27 616.17-47.56 671.78-108.67 951.38-293.46 961.77" stroke="rgba(17, 17, 132, 1)" stroke-width="2"></path><path d="M1491.12-53.59C1208.13 10.61 1084.38 759.06 663.59 760.35 242.8 761.64 77.96 272.44-163.94 252.75" stroke="rgba(17, 17, 132, 1)" stroke-width="2"></path><path d="M1407.22-114.13C1216.6-54.27 1173.67 483.28 889.05 494.31 604.42 505.34 629.96 359.31 370.87 359.31 111.79 359.31-13.44 493.21-147.3 494.31" stroke="rgba(17, 17, 132, 1)" stroke-width="2"></path><path d="M1668.14-22.23C1413.91 142.14 1462.97 989.63 1099.53 1046.9 736.1 1104.17 815.23 911.9 530.93 911.9 246.62 911.9 108.42 1045.98-37.68 1046.9" stroke="rgba(17, 17, 132, 1)" stroke-width="2"></path></g><defs><mask id="SvgjsMask1015"><rect width="1920" height="1080" fill="#ffffff"></rect></mask></defs></svg>